<svg width="360" height="400" viewBox="0 0 360 400" xmlns="http://www.w3.org/2000/svg">
  <title>LHM — Logo broadcast (fond sombre)</title>
  <defs>
    <linearGradient id="shield" x1="0" y1="0" x2="1" y2="1">
      <stop offset="0" stop-color="#6D28D9"></stop>
      <stop offset="0.55" stop-color="#FF2D78"></stop>
      <stop offset="1" stop-color="#FF6B35"></stop>
    </linearGradient>
    <clipPath id="clip"><path d="M180 46 L294 80 L294 210 Q294 298 180 350 Q66 298 66 210 L66 80 Z"></path></clipPath>
  </defs>
  <rect width="360" height="400" rx="28" fill="#0A0E27"></rect>
  <path d="M180 46 L294 80 L294 210 Q294 298 180 350 Q66 298 66 210 L66 80 Z" fill="url(#shield)"></path>
  <g clip-path="url(#clip)" opacity="0.12">
    <line x1="66" y1="120" x2="294" y2="120" stroke="#fff" stroke-width="20"></line>
    <line x1="66" y1="180" x2="294" y2="180" stroke="#fff" stroke-width="20"></line>
    <line x1="66" y1="240" x2="294" y2="240" stroke="#fff" stroke-width="20"></line>
  </g>
  <polygon points="120,100 123,109 132,109 125,115 128,124 120,118 112,124 115,115 108,109 117,109" fill="#fff"></polygon>
  <polygon points="180,86 183,95 192,95 185,101 188,110 180,104 172,110 175,101 168,95 177,95" fill="#fff"></polygon>
  <polygon points="240,100 243,109 252,109 245,115 248,124 240,118 232,124 235,115 228,109 237,109" fill="#fff"></polygon>
  <text x="180" y="235" text-anchor="middle" font-family="Archivo, &#39;Arial Black&#39;, sans-serif" font-size="74" font-weight="900" fill="#fff" letter-spacing="-2">LHM</text>
  <text x="180" y="280" text-anchor="middle" font-family="Archivo, &#39;Arial Black&#39;, sans-serif" font-size="13" font-weight="800" fill="#fff" letter-spacing="1" opacity="0.95">LIGUE HUBERT MANGE</text>
  <text x="180" y="308" text-anchor="middle" font-family="Archivo, &#39;Arial Black&#39;, sans-serif" font-size="13" font-weight="900" fill="#0A0E27" letter-spacing="3">2023</text>
</svg>